<svg height="64" style="enable-background:new 0 0 512 512" viewBox="0 0 512 512" width="64" xml:space="preserve" xmlns="http://www.w3.org/2000/svg" fill="white" stroke="white" fill-opacity="0.6"><path d="M46 435.121c1.858-59.477 21.342-139.923 56.839-205.553-2.905-10.626-4.451-21.728-4.451-33.156 0-67.294 53.369-123.486 124.542-137.003V175.65c0 15.545 12.646 28.192 28.186 28.192h9.771c15.553 0 28.192-12.647 28.192-28.192V59.409c71.173 13.517 124.541 69.709 124.541 137.003 0 11.429-1.546 22.53-4.451 33.156 35.497 65.63 54.981 146.076 56.831 205.553-7.408-20.554-19.699-53.212-34.308-86.406-33.351-75.78-61.364-116.561-85.663-124.66-44.689-14.892-77.52 4.964-90.025 14.669-12.514-9.705-45.336-29.568-90.024-14.669-24.3 8.1-52.321 48.88-85.663 124.66-14.61 33.194-26.901 65.852-34.317 86.406zm181.633-8.308V393.33l-24.172 33.483h24.172zm23.482-238.545h9.771c6.977 0 12.632-5.647 12.632-12.617V62.775c0-6.963-5.655-12.618-12.632-12.618h-9.771c-6.971 0-12.625 5.655-12.625 12.618V175.65c0 6.97 5.655 12.618 12.625 12.618zm33.326 238.545h24.106l-24.106-33.38v33.38zm132.961-71.93c14.008 31.818 25.852 63.147 33.238 83.538-22.277-8.189-44.778-15.011-67.368-20.458l26.157-61.029-66.774 104.909H169.412l-66.759-104.909 25.221 58.822c-22.769 5.559-44.883 12.744-66.12 21.579 7.416-20.412 19.09-51.198 32.845-82.452 40.677-92.41 65.265-112.385 76.3-116.056 47.104-15.709 78.307 14.364 79.6 15.635l5.484 5.439 5.498-5.425c1.315-1.285 32.518-31.358 79.629-15.649 11.027 3.671 35.623 23.646 76.292 116.056zm-221.55-15.754c17.515 0 42.639-50.247 42.639-50.247s-17.946-36.271-70.059-17.508c-35.03 12.604 9.912 67.755 27.42 67.755zm143.125 103.26-17.811-24.686-51.096-70.786c2.155-2.906 3.448-6.495 3.448-10.396 0-9.667-7.847-17.514-17.515-17.514-9.675 0-17.514 7.847-17.514 17.514 0 3.901 1.293 7.49 3.447 10.396l-51.095 70.786-17.819 24.686h165.955zm4.592-171.015c-52.112-18.763-70.051 17.508-70.051 17.508s25.116 50.247 42.639 50.247c17.507 0 62.442-55.151 27.412-67.755zM238.995 426.813h11.362v-64.961l-11.362 15.738v49.223zm22.724 0h11.361v-49.118l-11.361-15.738v64.856z"/></svg>